<?xml version="1.0" encoding="utf-8"?>
<!-- Generator: Adobe Illustrator 27.5.0, SVG Export Plug-In . SVG Version: 6.00 Build 0)  -->
<svg version="1.1" xmlns="http://www.w3.org/2000/svg" xmlns:xlink="http://www.w3.org/1999/xlink" x="0px" y="0px"
	 viewBox="0 0 500 500" style="enable-background:new 0 0 500 500;" xml:space="preserve">
<g id="BACKGROUND">
	<rect style="fill:#0A2630;" width="500" height="500"/>
</g>
<g id="OBJECTS">
	<g>
		<path style="fill:#D6D6D6;" d="M366.871,300.439c-0.279,0.386-0.559,0.772-0.837,1.16c-0.266,0.369,0.05,0.858,0.36,0.602
			c-2.275,9.425-6.017,18.226-13.187,23.914c-6.943,5.509-16.1,9.084-23.905,7.305c-7.904-1.798-14.159-7.519-19.013-14.818
			c-5.052-7.598-9.897-15.227-15.346-22.382c-9.325-12.24-22.872-19.245-36.413-23.045c-12.923-3.626-27.733-5.522-41.213,0.01
			c-6.068,2.489-12.108,6.4-16.472,12.486c-2.425,3.379-4.372,6.967-5.894,11.004c-1.612,4.273-3.535,8.737-4.566,13.282
			c-0.141,0.216-0.255,0.482-0.318,0.81c-0.167,0.873-0.37,1.496-0.147,2.364c0.478,1.853,2.456,2.54,3.557,0.567
			c5.004-8.963,6.234-19.756,13.475-27.069c5.543-5.597,12.423-8.436,19.221-9.618c13.893-2.419,28.25,0.554,40.838,5.994
			c14.301,6.178,28.294,16.619,37.813,30.717c8.74,12.94,19.837,24.98,35.56,20.262c13.688-4.109,24.758-15.773,27.119-33.211
			C367.558,300.378,367.104,300.115,366.871,300.439z"/>
		<g>
			<path style="fill:#D6D6D6;stroke:#282828;stroke-width:1.3753;stroke-miterlimit:10;" d="M245.909,235.016
				c-11.619-0.285-22.489-2.924-31.558-10.506c-8.193-6.851-14.292-15.984-20.978-24.216c-2.707-3.332-5.44-6.689-8.677-9.526
				c-3.252-2.85-6.476-5.814-10.409-7.704c-1.625-0.78-3.664-1.718-5.519-1.214c-0.904,0.244-3.068,1.421-1.233,2.41
				c0.757,0.407,1.479,0.851,2.19,1.307c1.604,3.872,3.784,7.524,6.141,11.079c3.35,7.055,7.09,13.974,10.177,21.109
				c1.55,3.581,3.052,7.133,4.75,10.539c0.516,1.54,1.078,3.067,1.707,4.577c4.339,10.415,12.018,16.957,22.977,19.89
				c14.526,3.887,40.592,6.572,51.237-6.777c0.933-1.172,1.341-3.009,0.35-4.309C262.055,235.116,253.508,235.203,245.909,235.016z"
				/>
			<path style="fill:#FFFFFF;stroke:#282828;stroke-width:1.3753;stroke-miterlimit:10;" d="M291.444,358.881
				c-5.242-5.402-14.769-0.668-22.337,3.028c-12.624-5.746-20.473-20.546-26.95-31.872c-7.275-12.727-14.367-26.225-26.333-35.203
				c-1.289-0.966-2.906-1.869-4.558-2.818c-0.28-0.171-0.572-0.337-0.872-0.508c-3.024-1.773-5.993-3.771-7.122-6.68
				c-2.893-7.447-2.822-16.597-4.421-24.435c-2.976-14.596-6.832-29.163-11.389-43.352c-3.471-10.807-7.908-21.626-15.557-30.172
				c-3.289-3.677-7.489-6.188-12.128-7.734c-2.333-0.778-4.904-0.893-7.34-0.881c-0.842,0.004-3.955,0.74-5.539,1.177
				c-0.448-0.603-1.213-0.879-1.998-0.252c-0.166,0.131-0.337,0.255-0.504,0.388c-0.958,0.101-1.823,0.617-2.125,1.617
				c-11.495,8.471-24.575,14.419-31.252,27.874c-6.284,12.665-4.423,29.027-3.091,42.532c1.834,18.598,5.695,37.33,13.314,54.463
				c4.347,9.776,10.554,18.641,18.427,25.905c11.82,10.903,27.266,17.986,33.921,33.61c3.084,7.239,0.544,14.568-3.073,21.06
				c-1.869,3.353-3.903,6.604-5.741,9.975c-3.446,6.326-9.698,11.563-10.025,19.177c-0.24,0.295-0.199,0.643-0.011,0.887
				c0.028,3.208,0.899,6.542,2.369,9.796c3.67,4.178,7.687,8.009,11.801,11.786c0.691,0.634,5.946,5.762,9.101,8.964
				c6.737,2.763,13.151,2.115,16.407-4.433c2.096-4.217,1.121-9.736-0.771-13.78c-0.897-1.914-2.601-3.503-3.861-5.178
				c-2.62-3.477-0.447-8.109,1.223-11.497c3.04-6.163,9.15-10.863,13.403-16.176c3.869-4.832,5.986-10.375,7.007-16.424
				c1.089-6.455-0.25-13.638-1.626-19.96c-2.808-12.905-9.648-21.459-18.105-31.223c-0.201-0.236-0.285-0.489-0.323-0.746
				c-0.167-0.769,0.239-1.629,1.043-1.675c2.33-0.624,7.242,3.409,8.958,4.674c12.626,9.298,22.001,22.766,29.75,36.198
				c4.794,8.307,8.757,21.51,16.564,28.306c4.016,1.627,8.554,1.485,13.061,0.293c6.783-5.605,14.473-9.931,22.047-14.434
				c2.828-2.944,5.691-5.916,8.829-8.178c1.205-2.022,2.58-3.964,3.707-6.03c0.062-0.111,0.123-0.223,0.183-0.332
				c-0.159-0.458-0.341-0.908-0.549-1.338c-0.158-0.86-0.419-1.648-0.806-2.32C293.608,361.592,292.747,360.227,291.444,358.881z
				 M143.429,185.925c0.198,0.118,0.406,0.214,0.619,0.295c-0.508,0.235-0.994,0.496-1.457,0.774
				c-0.094,0.004-0.185,0.014-0.278,0.021C142.688,186.656,143.067,186.3,143.429,185.925z"/>
			<path style="fill:#D6D6D6;stroke:#282828;stroke-width:1.3753;stroke-miterlimit:10;" d="M160.378,133.266
				c-1.539-1.545-3.202-2.971-4.956-4.271c-11.218-8.313-26.111-11.525-39.525-7.136c-6.73,2.202-15.061,6.65-19.895,11.954
				c-7.956,8.728-13.877,19.502-15.489,31.288c-0.736,5.382-0.495,16.91,3.693,22.917c0.718,1.58,1.696,3.037,2.944,4.305
				c4.426,7.15,14.317,10.475,22.664,11.732c5.171,0.779,12.431,1.161,17.64-1.009c3.124-1.303,7.248-1.128,10.584-2.399
				c3.646-1.392,7.173-3.111,10.518-5.119c11.013-6.609,21.447-18.268,23.431-31.387c0.887-5.872-1.492-14.307-3.83-19.631
				C166.304,140.289,163.614,136.516,160.378,133.266z"/>
			<path style="fill:#D6D6D6;stroke:#282828;stroke-width:1.3753;stroke-miterlimit:10;" d="M112.371,209.013
				c-0.398-0.398-0.884-0.709-1.458-0.888c-0.395-0.544-1.039-0.87-1.747-0.55c-0.327,0.149-0.642,0.325-0.965,0.488
				c-6.912,0.624-14.485,3.414-20.982,5.462c-4.861,1.533-8.354,4.086-10.466,7.85c-4.391,4.79-6.282,10.572-7.019,17.185
				c-1.574,14.101,1.447,28.328,2.441,42.364c0.973,13.762,4.934,28.43,12.098,40.272c3.215,5.313,7.7,9.609,12.973,12.826
				c2.307,1.407,5.644,2.922,8.381,2.947c0.505,0.006,0.974-0.052,1.419-0.152c9.526,1.736,21.238-0.703,26.618-6.469
				c1.839-1.97,1.198-4.513-0.485-5.908c0.317-1.077,0.273-2.27-0.287-3.298c-13.256-24.329-19.312-50.67-25.035-77.31
				c0.047-10.357,1.441-20.645,5.346-30.235c0.499-1.228,0.397-2.558-0.152-3.625c0.014-0.178,0.06-0.351,0.063-0.531
				C113.122,208.977,112.695,208.863,112.371,209.013z"/>
			<path style="fill:#959596;stroke:#282828;stroke-width:1.3753;stroke-miterlimit:10;" d="M163.071,183.691
				c-0.026,14.409-0.447,29.127-1.722,43.803c-6.999-6.27-13.782-12.735-20.851-18.948c-4.588-4.031-10.363-7.006-16.49-7.604
				c-3.139-0.306-6.246,0.096-9.058,1.588c-1.385,0.738-2.647,1.694-3.734,2.825c-0.363,0.376-2.117,3.212-2.447,3.222
				c-0.412,0.013-0.807,0.074-1.182,0.178c-0.054-0.015-0.096-0.044-0.153-0.055c-6.079-1.264-12.32,0.235-17.883,2.712
				c-2.331,1.036-14.667,6.371-12.299,10.112c3.163,4.983,12.8,3.023,17.205,1.934c2.404-0.593,4.742-1.484,6.936-2.635
				c-0.623,4.432-0.762,9.564-0.651,14.518c-1.178,11.515,1.161,23.639,3.176,35.269c0.337,2.336,0.711,4.667,1.149,6.987
				c0.14,0.929,0.277,1.853,0.4,2.768c1.575,11.655,3.788,23.334,8.21,34.274c2.379,5.889,6.288,15.473,11.939,18.967
				c4.222,2.612,8.592-1.925,9.136-6.041c1.272,0.668,2.969,0.674,4.16-0.493c16.949-16.612,25.475-40.695,29.365-63.568
				c0.674-3.958,1.228-7.936,1.701-11.924c0.578,0.56,1.157,1.116,1.733,1.671c5.352,5.152,10.223,10.81,15.574,15.976
				c2.984,2.881,6.159,6.026,9.627,8.349c5.597,3.771,6.945-0.25,6.167-5.394c-0.868-5.722-3.981-10.113-7.705-14.349
				c-7.033-8.005-15.758-14.873-24.015-21.716c0.291-4.7,0.481-9.405,0.575-14.104c0.145-7.267,0.125-14.584-0.188-21.843
				c-0.151-3.501-0.413-7.108-1.079-10.552c-0.139-0.712-0.577-3.57-1.004-3.431c-0.019-0.145-0.04-0.29-0.081-0.445
				c-0.06-0.226-0.121-0.452-0.182-0.679c-0.169-0.629-0.545-1.091-1.01-1.417c-0.067-0.279-0.124-0.56-0.194-0.839
				C167.44,179.815,163.077,180.821,163.071,183.691z M133.567,323.209c-7.312-18.033-14.139-36.281-19.508-54.996
				c-1.85-6.447-3.433-12.752-4.65-19.221c-0.189-2.771-0.305-5.546-0.409-8.298c-0.191-5.15-0.06-10.354,0.05-15.502
				c0.033-1.566,0.184-3.079,0.39-4.566c0.194-0.21,0.359-0.469,0.466-0.798c0.178-0.506,0.354-1.013,0.53-1.52
				c0.026-0.064,0.048-0.118,0.076-0.185c0.499-1.203,0.694-2.331,0.859-3.614c0.078-0.603-0.164-1.191-0.558-1.625
				c0.021-0.115,0.04-0.232,0.061-0.35c1.19-0.045,1.73-1.399,1.334-2.463c6.25-3.814,11.521-1.433,17.935,2.98
				c8.327,5.729,15.553,13.144,22.55,20.384c2.421,2.504,4.828,4.964,7.243,7.4C156.293,269.802,148.723,298.183,133.567,323.209z"
				/>
			<path style="fill:#D6D6D6;stroke:#282828;stroke-width:1.3753;stroke-miterlimit:10;" d="M167.269,278.017
				c-10.502-3.279-18.449-8.623-24.415-17.921c-5.131-7.997-5.367-18.648-6.995-27.732c-0.719-4.012-4.184-21.236-10.923-24.661
				c-5.759-4.9-13.823-1.655-16.947,6.887c-3.935,10.76,0.342,24.17,3.594,34.558c4.174,13.326,9.022,25.769,18.212,36.532
				c10.739,12.578,26.673,19.967,43.185,18.898c7.97-0.516,24.199-1.925,24.478-12.475
				C197.794,279.368,174.974,280.421,167.269,278.017z"/>
			<path style="fill:#0A2630;" d="M148.708,129.042c-2.273-1.193-4.907-1.889-8.032-1.867c-11.454,0.081-25.274,9.203-33.957,15.993
				c-14.997,11.728-14.105,47.101,8.792,48.769c17.123,1.247,37.815-11.387,47.019-25.374c4.626-7.034,4.423-15.489,0.525-22.729
				C160.885,139.806,154.655,130.628,148.708,129.042z"/>
			<path style="fill:#959596;stroke:#282828;stroke-width:1.3753;stroke-miterlimit:10;" d="M84.242,167.757
				c-0.341-0.085-0.699-0.087-1.032,0.024c-10.642,3.569-4.376,17.596-0.746,24.247c2.533,4.644,8.254,4.291,12.458,2.289
				c3.828-1.823,4.46-7.096,3.899-10.737C97.972,178.086,91.998,163.532,84.242,167.757z"/>
			<path style="fill:#959596;stroke:#282828;stroke-width:1.3753;stroke-miterlimit:10;" d="M196.995,283.467
				c-1.516-0.073-3.161,0.345-4.63,1.107c-5.023,0.25-9.957,4.101-7.885,9.705c2.135,5.776,8.064,7.634,13.647,6.016
				c4.481-1.301,9.717-6.141,7.342-11.272C203.918,285.675,200.701,283.642,196.995,283.467z"/>
			<path style="fill:#959596;stroke:#282828;stroke-width:1.3753;stroke-miterlimit:10;" d="M273.101,240.902
				c-0.926-0.455-1.964-0.727-2.894-0.833c-0.757-0.087-1.497-0.078-2.221,0.002c-3.115-1.104-7.469-0.298-9.863,0.9
				c-2.291,1.146-3.479,3.627-3.034,6.102c0.612,3.4,3.403,5.826,6.544,6.852c5.414,1.769,18.492-0.102,16.308-8.447
				C277.328,243.127,275.449,241.656,273.101,240.902z"/>
			<path style="fill:#959596;stroke:#282828;stroke-width:1.3753;stroke-miterlimit:10;" d="M191.314,445.287
				c-4.445,2.591-8.891,4.272-11.118-1.573c-0.48-1.261-1.611-2.075-2.838-2.129c-0.215-0.319-0.431-0.641-0.646-0.961
				c-0.29-0.431-0.698-0.772-1.158-1.02c-0.064-0.066-0.121-0.137-0.188-0.206c-0.586-0.591-1.446-0.845-2.282-0.793
				c-0.34-0.749-0.679-1.497-1.019-2.246c-0.571-1.26-1.696-2.036-2.873-2.036c-0.349-1.328-1.776-1.981-3.118-1.848
				c-0.874-0.918-1.652-1.417-2.482-1.602c-0.736-0.914-1.368-1.574-2.243-2.135c-0.007-0.497-0.133-0.988-0.417-1.415
				c-0.423-0.637-0.846-1.271-1.27-1.908c-0.462-0.697-1.098-1.086-1.773-1.228c-0.315-0.699-0.629-1.394-0.943-2.094
				c-0.094-0.208-0.217-0.406-0.35-0.591c0.603-1.157,0.564-2.599-0.332-3.45c0.231-0.529,0.22-1.157-0.199-1.767
				c-0.42-0.614-0.851-1.076-1.283-1.45c0.427-0.581,0.959-1.247,0.944-1.969c-0.009-0.491-0.122-1.303-0.631-1.563
				c-1.41-0.717-2.624,1.59-3.18,2.418c-0.029,0.043-0.061,0.085-0.09,0.131c-2.35,0.406-4.055,3.502-3.298,6.046
				c-0.102,0.671-0.005,1.394,0.356,2.075c0.484,0.91,0.965,1.765,1.492,2.57c0.063,0.379,0.171,0.759,0.37,1.141
				c0.856,1.631,1.766,2.844,2.885,3.795c0.167,2.37,1.941,4.263,4.343,5.194c0.068,0.297,0.168,0.591,0.335,0.863
				c1.64,2.664,3.29,4.043,6.074,5.45c0.064,0.033,0.132,0.044,0.196,0.071c0.247,0.268,0.499,0.525,0.765,0.745
				c0.721,1.981,2.508,3.541,4.698,4.087c1.676,2.166,3.737,3.117,6.126,2.549c4.501,5.239,12.81,4.415,16.622-1.816
				C193.357,445.696,192.139,444.804,191.314,445.287z"/>
			<path style="fill:#959596;stroke:#282828;stroke-width:1.3753;stroke-miterlimit:10;" d="M293.97,360.562
				c-0.67-1.053-2.051-0.221-1.852,0.862c0.572,3.14-0.477,5.387-2.254,7.397c-0.029-0.019-0.051-0.042-0.08-0.061
				c-2.265-1.518-4.836,1.884-3.361,3.819c-0.671-0.178-1.475-0.245-2.457-0.148c-1.986,0.2-3.077,2.274-2.2,3.896
				c-0.435-0.027-0.871-0.059-1.306-0.085c-1.949-0.131-2.788,1.891-2.419,3.485c-1.692-1.072-3.883,0.185-4.225,1.906
				c-1.576-0.342-3.47,0.913-3.423,2.763c0.002,0.135,0.007,0.273,0.009,0.408c-1.158-0.658-2.792-0.143-3.328,1.307
				c-0.37,0.441-0.592,0.971-0.625,1.508c-0.321,0.095-0.64,0.191-0.96,0.287c-1.826-1.728-4.987,0.853-3.415,2.903
				c0.092,0.385,0.13,0.728,0.132,1.046c-1.146-1.831-4.684-1.119-4.314,1.322c0.035,0.225,0.09,0.397,0.133,0.591l-0.029,0.006
				c-0.004,0.016-0.006,0.027-0.01,0.044c-0.853-1.176-2.989-0.743-3.278,0.972c-0.102-0.212-0.21-0.431-0.343-0.674
				c-0.762-1.38-2.306-0.985-2.984,0.037c-0.942-0.599-2.424-0.381-2.736,1.043c-0.508,2.33,1.484,4.128,2.991,5.605
				c1.065,1.043,2.628,0.263,3.019-0.974c0.065-0.204,0.119-0.38,0.175-0.565c0.568,0.12,1.118,0.09,1.611-0.106
				c0.053,0.042,0.093,0.079,0.148,0.122c0.698,0.558,1.505,0.612,2.281,0.183c0.755-0.414,1.409-0.822,1.962-1.248
				c0.65,0.186,1.396,0.094,1.987-0.235c2.171-1.211,3.783-2.78,4.31-4.601c1.692,0.019,3.18-0.764,4.021-2.135
				c1.758,0.187,3.309-0.502,4.267-1.744c2.015-0.437,3.649-1.611,4.492-3.111c1.368-0.352,2.643-1.354,3.678-2.747
				c2.123-0.56,4.035-2.818,4.888-5.175c2.263-0.776,4.022-2.813,4.138-5.024C296.266,369.692,296.856,365.09,293.97,360.562z"/>
			<g>
				<g>
					<path style="fill:none;stroke:#2D2D2D;stroke-width:0.6877;stroke-miterlimit:10;" d="M174.417,378.696"/>
				</g>
			</g>
			<g>
				<g>
					<g>
						<path style="fill:#282828;" d="M174.044,365.788c0,0-0.069-0.405,0.014-0.467c0.023-0.012,0.061-0.007,0.106,0.008
							c0.021,0.009,0.045,0.018,0.071,0.028l0.037,0.018l0.019,0.009l0.009,0.005c0,0,0.002,0.002,0.007,0.001l0.006-0.003
							l0.01-0.005l0.017-0.009l0.155-0.059l0.52,1.052l-0.032,0.025l-0.014,0.009l-0.006,0.003
							c-0.107-0.045-0.186-0.106-0.186-0.106c-0.01-0.016-0.43-0.67-0.444-0.692c0,0-0.009-0.107-0.033-0.204l-0.007,0.004
							l-0.014,0.009l-0.032,0.025l0.52,1.053l0.187-0.075l0.003,0.004l0.001,0.01l0.001,0.02l0.001,0.04
							c-0.001,0.027-0.003,0.053-0.004,0.076c-0.005,0.047-0.016,0.083-0.037,0.099c-0.091,0.05-0.43-0.183-0.43-0.183
							C174.444,366.411,174.072,365.832,174.044,365.788z"/>
					</g>
				</g>
			</g>
			<g>
				<g>
					<g>
						<path style="fill:#282828;" d="M211.684,368.627c0,0-0.154-0.069-0.448-0.142c-0.291-0.083-0.724-0.166-1.274-0.168
							c-1.109-0.048-2.628,0.47-4.507,1.002c-1.892,0.456-4.028,0.832-6.173,1.011c-2.141,0.183-4.267,0.238-6.125,0.249
							c-3.714,0.008-8.414-0.172-12.138,0.263c-1.868,0.175-3.474,0.524-4.621,0.786c-1.135,0.301-1.814,0.511-1.814,0.511
							c-0.377,0.103-0.637-0.63-0.273-0.776c0,0,0.681-0.262,1.834-0.642c1.162-0.341,2.805-0.796,4.716-1.072
							c3.82-0.64,8.606-0.648,12.29-0.664c1.845-0.007,3.936-0.013,6.026-0.119c2.088-0.101,4.176-0.376,6-0.717
							c1.792-0.407,3.511-0.899,4.819-0.772c0.645,0.04,1.154,0.172,1.488,0.29c0.339,0.109,0.51,0.199,0.51,0.199
							C212.359,368.106,212.028,368.713,211.684,368.627z"/>
					</g>
				</g>
			</g>
			<g>
				<g>
					<g>
						<path style="fill:#282828;" d="M211.636,381.272c0,0-0.701,0.1-1.865,0.267c-1.169,0.122-2.811,0.252-4.686,0.252
							c-3.753,0.014-8.388-0.652-11.923-1.496c-3.543-0.834-7.934-2.305-11.407-3.597c-3.473-1.296-6.07-2.33-6.07-2.33
							c-0.359-0.147-0.087-0.876,0.274-0.775c0,0,2.664,0.848,6.185,1.967c3.52,1.106,7.914,2.375,11.386,3.185
							c3.464,0.834,7.941,1.669,11.589,1.845c1.822,0.093,3.425,0.061,4.572,0.012c1.144-0.09,1.833-0.145,1.833-0.145
							C211.91,380.497,212.008,381.178,211.636,381.272z"/>
					</g>
				</g>
			</g>
			<g>
				<g>
					<g>
						<path style="fill:#282828;" d="M210.769,339.165c-0.02,0.019,0.01,0.008,0.293-0.459c0.003-0.02,0.243,0.02,0.663,0.062
							c0.329,0.048,0.664,0.048,1.153,0.048c0.948-0.027,2.274-0.211,3.714-0.715c2.905-0.954,6.157-3.061,8.536-4.916
							c2.47-1.861,5.416-4.544,7.524-6.941c1.059-1.193,1.917-2.301,2.486-3.12c0.572-0.818,0.863-1.338,0.863-1.338
							c0.173-0.279,0.864,0.079,0.725,0.388c0,0-0.264,0.572-0.798,1.461c-0.53,0.891-1.338,2.09-2.354,3.38
							c-2.019,2.589-4.916,5.495-7.477,7.435c-2.473,1.917-5.979,3.973-9.153,4.814c-1.572,0.448-3.037,0.556-4.079,0.508
							c-0.508-0.033-0.974-0.081-1.195-0.138c-0.127-0.026-0.212-0.058-0.209-0.042c-0.093,0.15-0.093,0.133-0.11,0.153
							c-0.035,0.026-0.077,0.066-0.2,0.11c-0.091,0.03-0.268,0.042-0.389-0.07c-0.142-0.14-0.101-0.158-0.129-0.232
							c0.001-0.146,0.052-0.153,0.089-0.191c0.083-0.05,0.183-0.05,0.275-0.03c0.092,0.02,0.18,0.059,0.25,0.089
							c0.011,0.005,0.051,0.015,0.033,0.011c-0.085,0-0.163,0-0.225,0.016c-0.069,0.013-0.042,0.046-0.062-0.012
							c-0.006-0.018-0.014-0.035-0.026-0.051l-0.019-0.021l-0.005-0.005l-0.001-0.001l-0.153-0.199l-0.001,0l-0.002,0
							L210.769,339.165z"/>
					</g>
				</g>
			</g>
			<g>
				<g>
					<g>
						<path style="fill:#282828;" d="M219.422,347.407c0,0-0.017,0.004-0.197,0.045c-0.167,0.043-0.432,0.041-0.811,0.276
							l-0.339-0.754c0.103-0.069,2.094-0.685,4.596-1.733c2.514-1.02,5.49-2.549,7.775-3.901c2.512-1.424,5.552-3.523,7.79-5.476
							c0.553-0.493,1.067-0.964,1.524-1.395c0.443-0.446,0.837-0.843,1.166-1.174c0.626-0.694,1.003-1.111,1.003-1.111
							c0.213-0.227,0.82,0.26,0.642,0.514c0,0-0.352,0.458-0.937,1.218c-0.313,0.364-0.688,0.801-1.109,1.291
							c-0.438,0.475-0.933,0.995-1.471,1.539c-2.173,2.155-5.212,4.492-7.802,5.969c-2.365,1.391-5.505,2.815-8.137,3.692
							c-2.623,0.907-4.697,1.352-4.815,1.372l-2.215,0.375l1.876-1.129c0.602-0.362,0.986-0.345,1.113-0.385
							c0.126-0.025,0.138-0.028,0.138-0.028C219.345,346.646,219.878,347.178,219.422,347.407z"/>
					</g>
				</g>
			</g>
			<g>
				<g>
					<g>
						<path style="fill:#282828;" d="M174.487,438.225c0,0,0-0.516,0.353-1.21c0.333-0.7,0.995-1.524,1.87-2.271
							c1.739-1.526,4.268-2.825,6.349-3.541c2.075-0.728,4.874-1.277,7.191-1.121c1.155,0.076,2.18,0.345,2.861,0.702
							c0.689,0.345,1.007,0.723,1.007,0.723c0.191,0.194-0.404,0.702-0.558,0.604c0,0-0.26-0.252-0.839-0.47
							c-0.57-0.227-1.462-0.378-2.502-0.356c-2.092,0.039-4.687,0.73-6.638,1.424c-1.961,0.665-4.43,1.729-6.12,2.974
							c-0.853,0.607-1.481,1.264-1.797,1.784c-0.334,0.518-0.363,0.865-0.363,0.865
							C175.191,438.497,174.499,438.503,174.487,438.225z"/>
					</g>
				</g>
			</g>
			<g>
				<g>
					<g>
						<path style="fill:#282828;" d="M278.951,375.412c0,0-0.067-0.054-0.189-0.153c-0.112-0.105-0.323-0.233-0.5-0.445
							c-0.388-0.406-0.876-1.016-1.306-1.771c-0.883-1.501-1.598-3.537-1.885-5.192c-0.302-1.647-0.35-3.836,0.134-5.566
							c0.204-0.865,0.609-1.591,0.961-2.057c0.368-0.458,0.693-0.657,0.675-0.667c0.159-0.129,0.604,0.512,0.527,0.631
							c0.012,0.013-0.199,0.186-0.43,0.572c-0.216,0.4-0.47,1.004-0.559,1.776c-0.245,1.522-0.029,3.515,0.26,5.034
							c0.256,1.527,0.744,3.471,1.385,4.92c0.31,0.73,0.667,1.314,0.948,1.706c0.13,0.21,0.278,0.318,0.359,0.424
							c0.088,0.097,0.135,0.15,0.135,0.15C279.526,374.941,279.123,375.5,278.951,375.412z"/>
					</g>
				</g>
			</g>
			<g>
				<g>
					<g>
						<path style="fill:#282828;" d="M135.673,274.847c0,0,0.065-0.248,0.174-0.659c0.135-0.404,0.356-0.961,0.687-1.56
							c0.675-1.189,1.844-2.445,2.889-3.208c1.041-0.779,2.493-1.534,3.677-2.05c1.185-0.52,2.094-0.854,2.094-0.854
							c0.128-0.043,0.468,0.657,0.365,0.737c0,0-3.32,1.991-5.181,3.443c-0.962,0.695-2.102,1.662-2.844,2.6
							c-0.361,0.473-0.635,0.92-0.817,1.252c-0.162,0.342-0.26,0.548-0.26,0.548C136.338,275.185,135.676,274.993,135.673,274.847z"
							/>
					</g>
				</g>
			</g>
			<g>
				<g>
					<g>
						<path style="fill:#282828;" d="M130.059,271.863c0,0,0.146-0.308,0.388-0.818c0.109-0.265,0.308-0.541,0.512-0.867
							c0.195-0.334,0.452-0.674,0.754-1.017c0.568-0.719,1.355-1.389,2.177-1.992c0.845-0.565,1.736-1.052,2.556-1.367
							c1.636-0.667,3.828-1.077,5.572-1.221c1.748-0.157,3.052-0.178,3.052-0.178c0.181-0.001,0.258,0.773,0.088,0.818
							c0,0-1.297,0.211-2.962,0.55c-1.672,0.327-3.68,0.9-5.157,1.511c-0.75,0.284-1.563,0.678-2.355,1.121
							c-0.764,0.479-1.522,0.998-2.092,1.579c-0.303,0.274-0.569,0.551-0.778,0.828c-0.218,0.269-0.435,0.496-0.562,0.722
							c-0.285,0.435-0.457,0.698-0.457,0.698C130.639,272.341,130.016,272.047,130.059,271.863z"/>
					</g>
				</g>
			</g>
			<g>
				<g>
					<g>
						<path style="fill:#282828;" d="M205.512,236.121c0,0-0.033-1.087,0.176-2.519c0.194-1.43,0.697-3.188,1.345-4.468
							c0.63-1.286,1.794-2.758,2.951-3.686c0.584-0.46,1.138-0.799,1.544-1.02c0.418-0.196,0.67-0.315,0.67-0.315
							c0.144-0.06,0.484,0.64,0.382,0.728c0,0-0.207,0.144-0.55,0.383c-0.33,0.258-0.773,0.634-1.23,1.108
							c-0.908,0.963-1.781,2.359-2.344,3.519c-0.587,1.147-1.226,2.693-1.592,4.002c-0.378,1.304-0.532,2.334-0.532,2.334
							C206.237,236.319,205.55,236.271,205.512,236.121z"/>
					</g>
				</g>
			</g>
			<g>
				<g>
					<g>
						<path style="fill:#282828;" d="M208.525,237.537c0,0-0.037-0.228-0.097-0.605c-0.042-0.38-0.084-0.919-0.051-1.535
							c0.038-1.237,0.484-2.749,1.065-3.805c0.569-1.068,1.609-2.218,2.558-2.972c0.951-0.762,1.778-1.155,1.778-1.155
							c0.115-0.056,0.526,0.604,0.449,0.689c0,0-0.671,0.522-1.406,1.344c-0.737,0.821-1.5,1.939-1.983,2.861
							c-0.505,0.908-1.058,2.131-1.27,3.196c-0.118,0.528-0.17,1.005-0.201,1.349c-0.015,0.345-0.024,0.554-0.024,0.554
							C209.269,237.578,208.585,237.657,208.525,237.537z"/>
					</g>
				</g>
			</g>
			<g>
				<g>
					<g>
						<path style="fill:#282828;" d="M185.342,353.381c0,0-0.085,0.352-0.225,0.936c-0.161,0.578-0.397,1.394-0.794,2.273
							c-0.367,0.894-0.906,1.84-1.489,2.745c-0.609,0.884-1.262,1.735-1.898,2.41c-1.254,1.382-3.041,2.883-4.416,4.111
							c-1.391,1.217-2.324,2.235-2.324,2.235c-0.138,0.133-0.741-0.357-0.637-0.52c0,0,0.829-1.188,2.114-2.569
							c1.271-1.392,2.908-3.019,4.087-4.333c1.213-1.289,2.633-3.019,3.484-4.61c0.453-0.779,0.761-1.513,0.98-2.039
							c0.203-0.534,0.325-0.856,0.325-0.856C184.683,353.007,185.349,353.18,185.342,353.381z"/>
					</g>
				</g>
			</g>
			<g>
				<g>
					<g>
						<path style="fill:#282828;" d="M184.762,391.777c0,0-0.822-1.099-1.908-2.55c-1.09-1.449-2.453-3.246-3.465-4.696
							c-1.006-1.455-2.217-3.369-3.154-4.934c-0.939-1.564-1.602-2.777-1.602-2.777c-0.088-0.17,0.571-0.584,0.692-0.444
							c0,0,0.823,1.099,1.908,2.55c1.09,1.449,2.453,3.246,3.465,4.696c1.006,1.455,2.217,3.369,3.154,4.934
							c0.939,1.564,1.602,2.777,1.602,2.777C185.488,391.535,184.906,391.904,184.762,391.777z"/>
					</g>
				</g>
			</g>
			<g>
				<g>
					<path style="fill:none;stroke:#2D2D2D;stroke-width:0.6877;stroke-miterlimit:10;" d="M211.975,337.47"/>
				</g>
			</g>
			<g>
				<g>
					<g>
						<path style="fill:#282828;" d="M221.73,326.278c0,0-0.617,1.084-1.632,2.394c-0.997,1.324-2.451,2.805-3.7,3.82
							c-1.249,1.019-2.976,2.114-4.385,2.928c-1.41,0.814-2.492,1.389-2.492,1.389c-0.152,0.076-0.567-0.582-0.444-0.692
							c0,0,0.98-0.733,2.273-1.7c1.29-0.965,2.857-2.183,4.044-3.161c1.198-0.966,2.701-2.227,3.797-3.372
							c1.111-1.129,1.865-2.077,1.865-2.077C221.22,325.72,221.786,326.112,221.73,326.278z"/>
					</g>
				</g>
			</g>
			<g>
				<g>
					<g>
						<path style="fill:#282828;" d="M235.399,351.258c0,0-0.752,0.608-1.867,1.223c-1.107,0.628-2.57,1.233-3.748,1.573
							c-2.368,0.705-6.129,0.928-6.129,0.928c-0.131,0.003-0.254-0.765-0.136-0.811c0,0,3.597-0.966,5.825-1.649
							c1.125-0.318,2.563-0.71,3.682-1.133c1.125-0.409,1.933-0.827,1.933-0.827C235.109,350.568,235.482,351.147,235.399,351.258z"
							/>
					</g>
				</g>
			</g>
			<g>
				<g>
					<g>
						<path style="fill:#282828;" d="M175.805,318.527c0,0,1.411,0.27,3.224,0.866c1.813,0.586,4.004,1.568,5.583,2.588
							c1.581,1.013,3.407,2.61,4.621,4.109c0.613,0.744,1.092,1.441,1.42,1.945c0.309,0.516,0.496,0.827,0.496,0.827
							c0.098,0.176-0.563,0.586-0.689,0.449c0,0-0.214-0.273-0.569-0.725c-0.37-0.44-0.897-1.044-1.544-1.684
							c-1.287-1.291-3.107-2.633-4.596-3.581c-1.48-0.963-3.47-2.064-5.154-2.806c-1.68-0.75-3.013-1.196-3.013-1.196
							C175.423,319.187,175.606,318.523,175.805,318.527z"/>
					</g>
				</g>
			</g>
			<g>
				<g>
					<g>
						<path style="fill:#282828;" d="M194.472,308.758c0,0,0.188,1.229,0.334,2.87c0.155,1.639,0.232,3.694,0.155,5.302
							c-0.073,1.608-0.368,3.651-0.706,5.269c-0.336,1.62-0.704,2.815-0.704,2.815c-0.053,0.165-0.811-0.009-0.804-0.173
							c0,0,0.179-1.212,0.319-2.819c0.143-1.607,0.24-3.605,0.304-5.17c0.082-1.564,0.198-3.567,0.235-5.187
							c0.027-1.621,0.047-2.85,0.047-2.85C193.722,308.642,194.409,308.595,194.472,308.758z"/>
					</g>
				</g>
			</g>
		</g>
		<path style="fill:#FFFFFF;stroke:#03020E;stroke-width:0.4213;stroke-miterlimit:10;" d="M111.447,149.611
			c0,0-12.984,10.802-3.895,28.643C107.552,178.253,105.537,163.525,111.447,149.611z"/>
	</g>
	<g>
		<path style="fill:#FFFFFF;stroke:#03020E;stroke-width:0.4213;stroke-miterlimit:10;" d="M410.147,305.002
			c1.383-9.562,1.494-19.249-0.596-28.806c-1.491-6.821-4.125-13.461-8.407-19.031c-4.807-6.253-9.278-2.387-13.947,2.033
			c-2.072,1.961-4.054,4.018-5.871,6.22c-3.784,4.581-6.803,9.716-9.273,15.11c-5.042,11.013-8.33,23.058-9.42,35.124
			c-0.614,6.803-0.725,13.83-0.267,20.647c0.232,3.479,0.647,6.939,1.19,10.383c0.934,5.915,0.941,9.802,6.419,13.287
			c3.966,2.525,9.367,3.896,14.06,3.111c7.993-1.334,10.828-8.946,13.349-15.644c2.662-7.075,5.709-13.904,7.884-21.161
			C407.349,319.326,409.108,312.199,410.147,305.002z"/>
		<path style="fill:#828282;stroke:#03020E;stroke-width:0.4213;stroke-miterlimit:10;" d="M387.253,280.424
			c-6.376,1.108-10.661,7.001-11.349,13.203c-1.486,13.374,17.443,22.261,25.253,9.917
			C407.568,293.411,400.154,278.187,387.253,280.424z"/>
		<path style="fill:#0A2630;" d="M398.089,289.48c-2.448-4.232-7.513-5.626-12.021-4.523c-5.723,1.401-7.717,8.122-6.364,13.163
			c1.459,5.443,7.707,8.698,12.93,6.752c2.38-0.887,4.474-3.147,5.572-5.735C399.795,296.203,399.719,292.297,398.089,289.48z"/>
		<path style="fill:#2C3B7C;stroke:#03020E;stroke-width:0.4213;stroke-miterlimit:10;" d="M395.601,354.268
			c0.003-0.074,0.005-0.144,0.008-0.219c0.036-1.154-1.267-1.676-2.216-1.374c-0.022-0.003-0.039-0.013-0.062-0.016
			c-0.523-0.096-1.038,0.056-1.436,0.36c-4.19,0.525-8.112,0.415-12.355-0.624c-4.897-1.199-9.46-3.299-14.009-5.419
			c-0.827-0.387-1.841-0.096-2.348,0.651c-0.595,0.876-0.008,1.839,0.142,2.753c0.473,2.847,0.529,5.399,2.663,7.606
			c3.107,3.213,8.272,4.877,12.594,5.511c5.817,0.851,12.106-1.793,15.369-6.772c0.12-0.184,0.203-0.391,0.258-0.613
			c0.098-0.04,0.197-0.074,0.294-0.117C395.263,355.667,395.576,355.07,395.601,354.268z"/>
		<path style="fill:#2C3B7C;stroke:#03020E;stroke-width:0.4213;stroke-miterlimit:10;" d="M400.763,255.847
			c-1.985-2.739-5.068-3.284-8.214-2.068c-2.989,1.155-12.623,12.056-12.551,12.944c0.199,2.441,2.762,3.523,4.76,4.26
			c2.95,1.089,6.081,1.88,9.2,2.227c0.523,0.057,1.186,0.165,1.936,0.286c0.242,0.042,0.487,0.083,0.731,0.117
			c3.307,0.526,7.879,1.135,10.303-0.472c0.296-0.062,0.593-0.127,0.891-0.195C408.969,272.682,405.132,261.88,400.763,255.847z"/>
		<path style="fill:#E2426C;stroke:#03020E;stroke-width:0.4213;stroke-miterlimit:10;" d="M408.664,272.65
			c-2.444-0.204-5.501,0.226-7.957,0.197c-2.77-0.03-5.516-0.457-8.213-1.067c-2.583-0.582-5.008-1.621-7.461-2.591
			c-1.434-0.568-2.977-2.265-4.614-2.137c-1.996,0.157-3.407,2.342-1.528,4.055c1.523,1.39,3.436,1.842,5.392,2.27
			c2.821,0.618,5.492,1.811,8.345,2.395c4.83,0.988,10.956,1.73,15.753,0.273C409.956,275.566,410.37,272.796,408.664,272.65z"/>
		<path style="fill:#828282;stroke:#03020E;stroke-width:0.4213;stroke-miterlimit:10;" d="M395.236,351.896
			c-1.346-1.752-3.6-1.54-5.602-1.336c-3.003,0.303-5.87,0.165-8.837-0.41c-2.715-0.531-5.469-1.113-8.103-1.968
			c-2.499-0.813-4.618-2.029-6.865-3.307c-0.233-0.186-0.509-0.318-0.828-0.365c-0.018-0.003-0.037-0.008-0.055-0.013
			c-2.109-0.457-2.978,2.173-1.671,3.511c3.617,3.714,9.764,4.662,14.606,5.671c2.839,0.592,5.608,1.028,8.515,1.094
			c2.589,0.059,5.157-0.458,7.74-0.529C395.245,354.216,395.903,352.765,395.236,351.896z"/>
		<path style="fill:#E2426C;stroke:#03020E;stroke-width:0.4213;stroke-miterlimit:10;" d="M368.72,334.822
			c-0.53-1.601-1.872-2.985-3.356-3.578c-1.138-0.816-2.524-1.139-4.115-0.529c-0.756,0.017-1.47,0.17-2.132,0.436
			c-2.329,0.458-4.222,2.166-5.486,4.201c-2.818,4.537-2.874,10.474-2.8,15.636c0.063,4.431,0.296,8.942,0.66,13.357
			c0.321,3.865,0.77,10.571,4.574,12.845c0.252,0.193,0.539,0.328,0.842,0.404c0.081,0.031,0.16,0.063,0.245,0.091
			c0.375,0.121,0.745,0.059,1.067-0.114c0.977-0.275,1.806-1.125,1.8-2.483c-0.027-6.769-0.781-13.444,0.451-20.161
			c0.618-3.369,1.333-5.974,4.049-8.265c1.535-1.294,3.453-1.717,3.668-4.028c0-0.011,0-0.025,0-0.034
			c0.24-0.543,0.425-1.115,0.591-1.65C369.423,338.897,369.402,336.867,368.72,334.822z"/>
		<path style="fill:#E2426C;stroke:#03020E;stroke-width:0.4213;stroke-miterlimit:10;" d="M394.623,339.534
			c1.061-1.308,2.806-2.13,4.404-2.165c1.352-0.361,2.762-0.176,4.037,0.954c0.702,0.285,1.315,0.678,1.842,1.159
			c2.02,1.249,3.189,3.517,3.655,5.865c1.039,5.24-1.001,10.816-2.889,15.622c-1.62,4.124-3.426,8.264-5.323,12.268
			c-1.661,3.504-4.442,9.623-8.803,10.41c-0.306,0.092-0.621,0.119-0.932,0.083c-0.087,0-0.172,0.004-0.261,0
			c-0.393-0.02-0.717-0.207-0.959-0.484c-0.817-0.599-1.292-1.687-0.808-2.959c2.412-6.323,5.465-12.306,6.678-19.025
			c0.607-3.371,0.858-6.063-0.879-9.162c-0.981-1.752-2.627-2.823-2.013-5.063c0.003-0.01,0.008-0.02,0.01-0.032
			c-0.034-0.592-0.004-1.192,0.027-1.751C392.531,343.1,393.267,341.21,394.623,339.534z"/>
		<path style="fill:#FFFFFF;stroke:#03020E;stroke-width:0.4213;stroke-miterlimit:10;" d="M383.346,292.896
			c-0.119-0.123-0.334,0.042-0.27,0.19c0.63,1.503,1.135,3.028,1.656,4.572c0.387,1.146,0.867,2.257,2.019,2.761
			c0.081,0.037,0.19-0.029,0.176-0.124c-0.203-1.409-1.045-2.704-1.598-4.005C384.81,295.062,384.27,293.875,383.346,292.896z"/>
		<path style="fill:#FFFFFF;stroke:#03020E;stroke-width:0.4213;stroke-miterlimit:10;" d="M387.507,289.472
			c-0.053-0.031-0.102,0.022-0.103,0.072c-0.017,1.856,0.858,3.8,1.436,5.535c0.568,1.704,1.442,3.712,3.038,4.658
			c0.7,0.414,1.281-0.54,0.93-1.117c-1.05-1.737-1.975-3.388-2.787-5.258C389.425,291.984,388.871,290.271,387.507,289.472z"/>
		<path style="fill:#FFFFFF;stroke:#03020E;stroke-width:0.4213;stroke-miterlimit:10;" d="M392.841,290.272
			c-0.25-0.25-0.692,0.019-0.656,0.344c0.078,0.693,0.298,1.318,0.606,1.942c0.129,0.26,0.295,0.581,0.535,0.758
			c0.325,0.239,0.849,0.443,0.972,0.87c0.122,0.412,0.756-0.02,0.407-0.285c-0.322-0.245-0.294-0.777-0.337-1.131
			c-0.038-0.301-0.194-0.593-0.34-0.854C393.689,291.317,393.328,290.764,392.841,290.272z"/>
	</g>
	<g>
		<path style="fill:#FFFFFF;stroke:#03020E;stroke-width:0.7823;stroke-miterlimit:10;" d="M426.202,123.707
			c-1.533-11.625-8.373-23.453-19.494-27.691c-13.342-5.084-29.473-0.864-38.578,10.054c-11.69,14.017-10.204,40.547,6.839,49.896
			c9.29,5.096,21.984,6.182,31.678,1.645c11.052-5.172,19.732-16.008,19.884-28.532
			C426.552,127.313,426.441,125.513,426.202,123.707z"/>
		<g>
			<path style="fill:#0A2630;" d="M379.303,136.25c-3.57,0-3.57,5.537,0,5.537S382.873,136.25,379.303,136.25z"/>
			<path style="fill:#0A2630;" d="M409.025,139.019c-1.693,0-3.106,1.414-3.106,3.108c0,1.694,1.413,3.108,3.106,3.108
				c1.695,0,3.108-1.414,3.108-3.108C412.134,140.433,410.721,139.019,409.025,139.019z"/>
			<path style="fill:#0A2630;" d="M375.5,109.959c-5.006,0-5.006,7.762,0,7.762C380.507,117.721,380.507,109.959,375.5,109.959z"/>
			<path style="fill:#0A2630;" d="M368.424,125.07c-2.473,0-2.473,3.835,0,3.835C370.898,128.905,370.898,125.07,368.424,125.07z"/>
			<path style="fill:#0A2630;" d="M393.562,147.693c-2.474,0-2.474,3.835,0,3.835C396.035,151.528,396.035,147.693,393.562,147.693z
				"/>
			<path style="fill:#0A2630;" d="M390.196,124.564c-0.146,0.047-0.292,0.091-0.435,0.144c-1.066,0.376-1.844,1.242-1.844,2.42
				c0,1.178,0.778,2.044,1.844,2.42c0.143,0.052,0.289,0.096,0.435,0.143c1.658,0.538,3.365-0.895,3.365-2.564
				C393.562,125.458,391.855,124.026,390.196,124.564z"/>
			<path style="fill:#0A2630;" d="M398.329,100.668c-4.136,0-7.59,3.452-7.59,7.589s3.454,7.588,7.59,7.588
				c4.136,0,7.59-3.451,7.59-7.588S402.465,100.668,398.329,100.668z"/>
			<path style="fill:#0A2630;" d="M415.186,123.058c-2.142,0-3.93,1.788-3.93,3.93s1.788,3.93,3.93,3.93
				c2.143,0,3.932-1.788,3.932-3.93S417.329,123.058,415.186,123.058z"/>
		</g>
	</g>
	<text transform="matrix(1 0 0 1 181.8791 103.754)" style="fill:#FFFFFF; font-family:'AmaticSC-Regular'; font-size:49.1585px;">Astronaut</text>
	<g>
		<path style="fill:#FFFFFF;" d="M30.526,432.677c-2.428,1.559-0.014,5.327,2.416,3.77C35.372,434.889,32.956,431.12,30.526,432.677
			z"/>
		<path style="fill:#FFFFFF;" d="M33.717,306.19c-0.083,0.175-0.166,0.349-0.248,0.521c-0.34,0.717,0.179,1.525,0.972,1.515
			c0.191-0.003,0.384-0.003,0.576-0.009c1.064-0.018,1.674-1.275,1.116-2.145C35.573,305.2,34.178,305.232,33.717,306.19z"/>
		<path style="fill:#FFFFFF;" d="M32.733,474.207c0.271,0.113,0.54,0.224,0.811,0.338c0.7,0.29,1.383-0.149,1.411-0.906
			c0.011-0.292,0.023-0.582,0.033-0.876C35.119,469.277,29.513,472.872,32.733,474.207z"/>
		<path style="fill:#FFFFFF;" d="M85.666,415.267c-1.026,0.349-1.671,1.37-1.355,2.491c0.017,0.06,0.057,0.113,0.076,0.168
			c0.294,1.405,1.71,2.141,3.101,1.827c0.984-0.225,1.916-1.198,1.809-2.27c-0.05-0.523-0.165-0.956-0.478-1.38
			C88.156,415.196,86.724,414.607,85.666,415.267z"/>
		<path style="fill:#FFFFFF;" d="M143.992,471.41c-2.521,1.616-0.014,5.527,2.507,3.909
			C149.021,473.703,146.513,469.792,143.992,471.41z"/>
		<path style="fill:#FFFFFF;" d="M87.398,366.31c-1.514,0.969-0.01,3.316,1.502,2.346C90.414,367.687,88.91,365.339,87.398,366.31z"
			/>
		<path style="fill:#FFFFFF;" d="M28.322,369.068c-3.575,2.293-0.02,7.838,3.555,5.548
			C35.453,372.322,31.898,366.778,28.322,369.068z"/>
		<path style="fill:#FFFFFF;" d="M101.012,466.92c-2.056,1.317-0.013,4.503,2.041,3.186
			C105.108,468.788,103.064,465.603,101.012,466.92z"/>
		<path style="fill:#FFFFFF;" d="M144.78,382.619c-0.97-0.731-1.848-0.649-2.902-0.145c-2.148,1.032-0.21,4.404,1.866,3.415
			C145.182,385.718,146.106,383.619,144.78,382.619z"/>
	</g>
	<g>
		<path style="fill:#FFFFFF;" d="M460.23,413.1c2.428,1.559,0.014,5.327-2.416,3.77C455.384,415.313,457.8,411.543,460.23,413.1z"/>
		<path style="fill:#FFFFFF;" d="M454.822,282.814c0.083,0.175,0.166,0.349,0.248,0.521c0.34,0.717-0.179,1.525-0.972,1.515
			c-0.191-0.003-0.384-0.003-0.576-0.009c-1.064-0.018-1.674-1.275-1.116-2.145C452.966,281.824,454.361,281.857,454.822,282.814z"
			/>
		<path style="fill:#FFFFFF;" d="M455.806,474.207c-0.271,0.113-0.54,0.224-0.811,0.338c-0.7,0.29-1.383-0.149-1.411-0.906
			c-0.012-0.292-0.023-0.582-0.033-0.876C453.42,469.277,459.026,472.872,455.806,474.207z"/>
		<path style="fill:#FFFFFF;" d="M402.873,415.267c1.026,0.349,1.671,1.37,1.355,2.491c-0.017,0.06-0.057,0.113-0.077,0.168
			c-0.294,1.405-1.71,2.141-3.101,1.827c-0.984-0.225-1.916-1.198-1.81-2.27c0.05-0.523,0.165-0.956,0.478-1.38
			C400.383,415.196,401.815,414.607,402.873,415.267z"/>
		<path style="fill:#FFFFFF;" d="M271.796,446.799c2.522,1.616,0.014,5.527-2.507,3.909
			C266.767,449.093,269.274,445.182,271.796,446.799z"/>
		<path style="fill:#FFFFFF;" d="M335.064,433.389c1.514,0.969,0.01,3.316-1.502,2.346
			C332.048,434.766,333.552,432.418,335.064,433.389z"/>
		<path style="fill:#FFFFFF;" d="M453.974,360.638c3.575,2.293,0.02,7.838-3.555,5.548
			C446.842,363.892,450.397,358.348,453.974,360.638z"/>
		<path style="fill:#FFFFFF;" d="M369.444,471.367c2.056,1.317,0.013,4.503-2.041,3.186
			C365.348,473.235,367.392,470.05,369.444,471.367z"/>
		<path style="fill:#FFFFFF;" d="M309.073,384.612c0.97-0.731,1.848-0.649,2.902-0.145c2.148,1.032,0.21,4.404-1.866,3.415
			C308.672,387.71,307.748,385.612,309.073,384.612z"/>
	</g>
	<g>
		<path style="fill:#FFFFFF;" d="M338.654,123.865c1.039-2.692-3.135-4.307-4.176-1.615
			C333.437,124.943,337.613,126.557,338.654,123.865z"/>
		<path style="fill:#FFFFFF;" d="M404.109,230.253c-0.037-0.19-0.073-0.38-0.107-0.567c-0.149-0.78-1.045-1.124-1.679-0.648
			c-0.152,0.116-0.308,0.23-0.46,0.347c-0.848,0.643-0.598,2.017,0.367,2.39C403.196,232.148,404.303,231.298,404.109,230.253z"/>
		<path style="fill:#FFFFFF;" d="M264.72,121.462c-0.285,0.069-0.569,0.138-0.854,0.206c-0.736,0.179-1.028,0.937-0.603,1.564
			c0.163,0.242,0.325,0.483,0.491,0.726C265.707,126.849,268.107,120.636,264.72,121.462z"/>
		<path style="fill:#FFFFFF;" d="M285.576,179.35c0.622-0.888,0.539-2.092-0.378-2.811c-0.049-0.039-0.113-0.058-0.161-0.09
			c-1.067-0.96-2.644-0.717-3.581,0.357c-0.661,0.763-0.839,2.099-0.119,2.9c0.349,0.393,0.698,0.674,1.201,0.832
			C283.609,180.878,285.113,180.508,285.576,179.35z"/>
		<path style="fill:#FFFFFF;" d="M201.696,150.447c1.08-2.794-3.253-4.468-4.332-1.673
			C196.284,151.567,200.617,153.242,201.696,150.447z"/>
		<path style="fill:#FFFFFF;" d="M326.418,266.188c0.649-1.677-1.951-2.681-2.598-1.006
			C323.171,266.859,325.772,267.865,326.418,266.188z"/>
		<path style="fill:#FFFFFF;" d="M336.323,205.858c1.531-3.962-4.613-6.336-6.145-2.376
			C328.647,207.445,334.791,209.818,336.323,205.858z"/>
		<path style="fill:#FFFFFF;" d="M215.841,196.941c0.881-2.277-2.649-3.641-3.529-1.365
			C211.432,197.853,214.963,199.216,215.841,196.941z"/>
		<path style="fill:#FFFFFF;" d="M276.308,228.644c1.214,0.016,1.874-0.568,2.427-1.597c1.123-2.101-2.432-3.678-3.523-1.653
			C274.154,226.381,274.648,228.62,276.308,228.644z"/>
	</g>
	<g>
		<path style="fill:#FFFFFF;" d="M260.021,34.523c-0.038,0.19-0.077,0.379-0.115,0.565c-0.157,0.778,0.542,1.436,1.309,1.235
			c0.185-0.049,0.371-0.096,0.557-0.147c1.028-0.274,1.317-1.641,0.565-2.351C261.584,33.114,260.237,33.482,260.021,34.523z"/>
		<path style="fill:#FFFFFF;" d="M469.895,31.732c0.29,0.044,0.578,0.087,0.869,0.133c0.749,0.113,1.306-0.478,1.15-1.22
			c-0.059-0.286-0.118-0.57-0.179-0.858C471.019,26.372,466.447,31.213,469.895,31.732z"/>
		<path style="fill:#FFFFFF;" d="M392.248,126.5c-0.912,0.586-1.291,1.732-0.714,2.745c0.031,0.055,0.082,0.096,0.115,0.145
			c0.624,1.292,2.176,1.665,3.45,1.025c0.9-0.456,1.57-1.625,1.208-2.639c-0.175-0.496-0.391-0.888-0.797-1.224
			C394.647,125.83,393.115,125.604,392.248,126.5z"/>
		<path style="fill:#FFFFFF;" d="M458.949,184.999c-2.057,2.177,1.32,5.367,3.377,3.188
			C464.383,186.011,461.006,182.821,458.949,184.999z"/>
		<path style="fill:#FFFFFF;" d="M395.396,30.664c-1.235,1.306,0.791,3.22,2.024,1.914
			C398.655,31.273,396.629,29.357,395.396,30.664z"/>
		<path style="fill:#FFFFFF;" d="M336.424,34.097c-2.916,3.088,1.872,7.611,4.789,4.526
			C344.13,35.534,339.342,31.011,336.424,34.097z"/>
		<path style="fill:#FFFFFF;" d="M465.351,86.914c-1.677,1.775,1.074,4.373,2.749,2.599
			C469.777,87.738,467.025,85.14,465.351,86.914z"/>
		<path style="fill:#FFFFFF;" d="M371.539,71.343c-1.118-0.475-1.95-0.184-2.851,0.56c-1.835,1.52,0.859,4.325,2.636,2.864
			C372.677,74.253,373.067,71.993,371.539,71.343z"/>
	</g>
	<path style="fill:#FFFFFF;" d="M86.594,46.231c-0.119,0.074-0.002,0.258,0.118,0.18C86.83,46.337,86.713,46.153,86.594,46.231z"/>
	<g>
		<path style="fill:#FFFFFF;" d="M46.521,43.548c-2.422,1.549-0.016,5.304,2.406,3.751C51.346,45.749,48.94,41.995,46.521,43.548z"
			/>
		<path style="fill:#FFFFFF;" d="M110.803,37.059c0.348,0.146,0.696,0.289,1.044,0.436c0.901,0.374,1.781-0.191,1.816-1.167
			c0.015-0.376,0.03-0.749,0.042-1.127C113.874,30.711,106.657,35.34,110.803,37.059z"/>
		<path style="fill:#FFFFFF;" d="M51.427,103.442c-3.601,2.307-0.022,7.89,3.58,5.583C58.609,106.717,55.028,101.132,51.427,103.442
			z"/>
		<path style="fill:#FFFFFF;" d="M36.109,162.288c-0.244,0.014-0.491,0.019-0.739,0.03c0.038,0.014,0.072,0.029,0.105,0.039
			c-1.922-0.133-3.786,1.334-3.063,3.658c0.943,3.031,4.562,2.346,5.455,0.007c-0.005,0.055-0.01,0.113-0.015,0.171
			c0.115-0.221,0.225-0.441,0.337-0.659C38.945,164.034,37.786,162.226,36.109,162.288z"/>
		<path style="fill:#FFFFFF;" d="M157.759,69.121c-2.363,1.516-0.014,5.177,2.348,3.664
			C162.468,71.269,160.12,67.609,157.759,69.121z"/>
		<path style="fill:#FFFFFF;" d="M112.477,97.519c-2.479,1.587-0.015,5.433,2.465,3.843
			C117.42,99.775,114.956,95.928,112.477,97.519z"/>
	</g>
</g>
<g id="DESIGNED_BY_FREEPIK">
	<g>
		<g id="XMLID_457_">
			<g id="XMLID_486_">
				<g id="XMLID_505_">
					<path id="XMLID_513_" style="fill:#F9FBFC;" d="M256.677,472.701c-0.432,0.443-0.803,0.932-1.107,1.453l-0.465-0.241
						c-0.068-0.297-0.35-0.502-0.66-0.466c-0.33,0.039-0.566,0.339-0.529,0.67c0.039,0.331,0.34,0.567,0.67,0.528
						c0.066-0.007,0.127-0.025,0.184-0.052l0.451,0.234c-0.25,0.554-0.432,1.139-0.539,1.743l0.748,0.132
						c0.229-1.306,0.85-2.507,1.791-3.473L256.677,472.701z"/>
					<path id="XMLID_512_" style="fill:#F9FBFC;" d="M262.165,470.399c-0.172,0-0.342,0.006-0.51,0.017l-0.074-0.626
						c0.188-0.149,0.297-0.389,0.266-0.645c-0.045-0.393-0.402-0.674-0.795-0.628c-0.393,0.046-0.674,0.402-0.627,0.796
						c0.029,0.254,0.189,0.461,0.404,0.564l0.072,0.624c-0.713,0.116-1.402,0.332-2.059,0.646l0.326,0.685
						c0.936-0.447,1.941-0.674,2.996-0.674c0.496,0,0.992,0.053,1.475,0.158l0.16-0.741
						C263.265,470.458,262.716,470.399,262.165,470.399z"/>
					<path id="XMLID_511_" style="fill:#F9FBFC;" d="M268.767,472.946c0.332-0.04,0.566-0.341,0.525-0.672
						c-0.039-0.331-0.34-0.566-0.672-0.525c-0.309,0.038-0.535,0.304-0.529,0.608l-0.416,0.363c-0.418-0.43-0.891-0.813-1.408-1.14
						l-0.404,0.642c1.135,0.715,2.021,1.727,2.564,2.925l0.689-0.313c-0.25-0.554-0.566-1.071-0.941-1.545l0.402-0.35
						C268.638,472.951,268.702,472.955,268.767,472.946z"/>
					<path id="XMLID_510_" style="fill:#F9FBFC;" d="M261.618,480.607c-0.387,0.023-0.775,0.035-1.158,0.035
						c-0.879,0-1.733-0.061-2.479-0.18c-0.391-0.061-0.846-0.154-1.27-0.292c1.047,1.861,3.068,3.125,5.389,3.125
						c2.855,0,5.262-1.916,5.949-4.503c-0.682,0.449-1.506,0.825-2.459,1.122C264.411,480.283,263.036,480.522,261.618,480.607z"/>
					<path id="XMLID_506_" style="fill:#F9FBFC;" d="M262.165,471.916c-3.352,0-6.08,2.666-6.08,5.943
						c0,0.425,0.047,0.849,0.137,1.261c0.674,0.483,2.707,0.891,5.348,0.732c2.881-0.174,5.297-0.958,6.672-2.159
						c-0.004-0.194-0.02-0.39-0.045-0.581C267.817,474.149,265.224,471.916,262.165,471.916z M260.005,478.431
						c-1.02,0-1.85-0.83-1.85-1.85c0-1.021,0.83-1.851,1.85-1.851s1.85,0.83,1.85,1.851
						C261.854,477.601,261.024,478.431,260.005,478.431z M264.743,477.522c-0.75,0-1.361-0.61-1.361-1.36s0.611-1.36,1.361-1.36
						s1.359,0.61,1.359,1.36S265.493,477.522,264.743,477.522z"/>
				</g>
				<path id="XMLID_503_" style="fill:#F9FBFC;" d="M278.169,473.783c-0.295-0.116-0.807-0.31-1.383-0.238
					c-0.551,0.069-0.844,0.341-0.844,1.007v0.866h2.229v1.717h-2.229v5.455h-1.932v-5.455h-1.34v-1.717h1.34v-0.889
					c0-1.68,0.895-2.782,2.568-2.782c0.643,0,1.156,0.121,1.59,0.308V473.783z"/>
				<path id="XMLID_501_" style="fill:#F9FBFC;" d="M282.87,477.114c-0.176-0.029-0.357-0.046-0.525-0.046
					c-0.895,0-1.51,0.548-1.51,1.613v3.908h-1.932v-7.172h1.873v0.784c0.451-0.673,1.139-0.977,2.02-0.977
					c0.414,0,0.848,0.128,1.096,0.337L282.87,477.114z"/>
				<path id="XMLID_498_" style="fill:#F9FBFC;" d="M290.538,478.993c0,0.222-0.016,0.488-0.037,0.651h-5.084
					c0.207,1.036,0.932,1.487,1.842,1.487c0.623,0,1.295-0.252,1.814-0.688l1.133,1.243c-0.814,0.748-1.852,1.089-3.057,1.089
					c-2.199,0-3.725-1.496-3.725-3.753c0-2.258,1.481-3.797,3.627-3.797C289.116,475.226,290.53,476.758,290.538,478.993z
					 M285.425,478.327h3.174c-0.178-0.918-0.732-1.436-1.561-1.436C286.128,476.891,285.595,477.439,285.425,478.327z"/>
				<path id="XMLID_495_" style="fill:#F9FBFC;" d="M298.192,478.993c0,0.222-0.016,0.488-0.037,0.651h-5.086
					c0.207,1.036,0.934,1.487,1.844,1.487c0.621,0,1.295-0.252,1.813-0.688l1.133,1.243c-0.815,0.748-1.85,1.089-3.057,1.089
					c-2.199,0-3.723-1.496-3.723-3.753c0-2.258,1.48-3.797,3.627-3.797C296.77,475.226,298.185,476.758,298.192,478.993z
					 M293.077,478.327h3.176c-0.178-0.918-0.734-1.436-1.563-1.436C293.78,476.891,293.247,477.439,293.077,478.327z"/>
				<path id="XMLID_492_" style="fill:#F9FBFC;" d="M306.538,479c0,2.154-1.496,3.775-3.473,3.775c-0.961,0-1.643-0.378-2.109-0.933
					v3.708h-1.924v-10.133h1.887v0.792c0.467-0.585,1.154-0.984,2.139-0.984C305.042,475.226,306.538,476.847,306.538,479z
					 M300.86,479c0,1.133,0.748,1.977,1.844,1.977c1.139,0,1.85-0.881,1.85-1.977c0-1.095-0.711-1.976-1.85-1.976
					C301.608,477.024,300.86,477.868,300.86,479z"/>
				<path id="XMLID_489_" style="fill:#F9FBFC;" d="M309.642,473.071c0,0.696-0.541,1.23-1.236,1.23
					c-0.697,0-1.228-0.533-1.228-1.23c0-0.695,0.531-1.243,1.228-1.243C309.101,471.828,309.642,472.376,309.642,473.071z
					 M309.382,482.59h-1.932v-7.172h1.932V482.59z"/>
				<path id="XMLID_487_" style="fill:#F9FBFC;" d="M312.604,477.972l2.703-2.554h2.367l-3.478,3.375l3.502,3.797h-2.377
					l-2.717-2.901v2.901h-1.932v-10.658h1.932V477.972z"/>
			</g>
			<g id="XMLID_458_">
				<path id="XMLID_483_" style="fill:#F9FBFC;" d="M180.985,482.525v-1.055c-0.527,0.718-1.391,1.23-2.387,1.23
					c-1.846,0-3.149-1.406-3.149-3.706c0-2.256,1.289-3.721,3.149-3.721c0.952,0,1.816,0.469,2.387,1.245v-3.765h1.1v9.77H180.985z
					 M180.985,480.606v-3.208c-0.395-0.615-1.244-1.143-2.123-1.143c-1.421,0-2.27,1.172-2.27,2.739c0,1.567,0.85,2.725,2.27,2.725
					C179.741,481.72,180.591,481.222,180.985,480.606z"/>
				<path id="XMLID_480_" style="fill:#F9FBFC;" d="M183.505,478.98c0-2.051,1.465-3.706,3.486-3.706
					c2.139,0,3.398,1.67,3.398,3.794v0.278h-5.727c0.088,1.333,1.025,2.446,2.549,2.446c0.805,0,1.625-0.322,2.182-0.894
					l0.527,0.718c-0.703,0.703-1.654,1.084-2.813,1.084C185.015,482.701,183.505,481.192,183.505,478.98z M186.977,476.183
					c-1.51,0-2.256,1.274-2.314,2.358h4.643C189.292,477.486,188.589,476.183,186.977,476.183z"/>
				<path id="XMLID_478_" style="fill:#F9FBFC;" d="M191.181,481.588l0.571-0.791c0.469,0.542,1.362,1.011,2.329,1.011
					c1.084,0,1.67-0.513,1.67-1.216c0-1.714-4.38-0.659-4.38-3.281c0-1.099,0.952-2.036,2.636-2.036
					c1.202,0,2.052,0.454,2.623,1.025l-0.514,0.762c-0.424-0.513-1.2-0.893-2.109-0.893c-0.966,0-1.566,0.483-1.566,1.113
					c0,1.553,4.379,0.527,4.379,3.281c0,1.186-0.951,2.139-2.782,2.139C192.88,482.701,191.898,482.35,191.181,481.588z"/>
				<path id="XMLID_475_" style="fill:#F9FBFC;" d="M198.051,473.707c0-0.41,0.337-0.747,0.731-0.747
					c0.41,0,0.748,0.337,0.748,0.747c0,0.41-0.338,0.733-0.748,0.733C198.388,474.44,198.051,474.117,198.051,473.707z
					 M198.241,482.525v-7.075h1.099v7.075H198.241z"/>
				<path id="XMLID_472_" style="fill:#F9FBFC;" d="M201.155,484.342l0.557-0.82c0.586,0.703,1.289,0.967,2.301,0.967
					c1.172,0,2.27-0.571,2.27-2.124v-1.011c-0.512,0.718-1.377,1.26-2.373,1.26c-1.846,0-3.148-1.377-3.148-3.662
					c0-2.271,1.289-3.677,3.148-3.677c0.953,0,1.803,0.469,2.373,1.245v-1.069h1.1v6.87c0,2.344-1.641,3.076-3.369,3.076
					C202.811,485.397,201.991,485.161,201.155,484.342z M206.282,480.489v-3.091c-0.381-0.615-1.23-1.143-2.109-1.143
					c-1.42,0-2.27,1.128-2.27,2.695c0,1.553,0.85,2.695,2.27,2.695C205.051,481.647,205.901,481.104,206.282,480.489z"/>
				<path id="XMLID_470_" style="fill:#F9FBFC;" d="M213.987,482.525v-4.629c0-1.245-0.631-1.641-1.582-1.641
					c-0.865,0-1.686,0.527-2.094,1.099v5.171h-1.1v-7.075h1.1v1.025c0.496-0.586,1.463-1.201,2.518-1.201
					c1.48,0,2.256,0.747,2.256,2.285v4.966H213.987z"/>
				<path id="XMLID_467_" style="fill:#F9FBFC;" d="M216.506,478.98c0-2.051,1.465-3.706,3.486-3.706
					c2.139,0,3.398,1.67,3.398,3.794v0.278h-5.729c0.088,1.333,1.025,2.446,2.549,2.446c0.807,0,1.627-0.322,2.184-0.894
					l0.527,0.718c-0.703,0.703-1.656,1.084-2.813,1.084C218.014,482.701,216.506,481.192,216.506,478.98z M219.977,476.183
					c-1.508,0-2.256,1.274-2.314,2.358h4.644C222.291,477.486,221.588,476.183,219.977,476.183z"/>
				<path id="XMLID_464_" style="fill:#F9FBFC;" d="M229.924,482.525v-1.055c-0.527,0.718-1.393,1.23-2.389,1.23
					c-1.846,0-3.148-1.406-3.148-3.706c0-2.256,1.287-3.721,3.148-3.721c0.951,0,1.817,0.469,2.389,1.245v-3.765h1.098v9.77H229.924
					z M229.924,480.606v-3.208c-0.396-0.615-1.246-1.143-2.125-1.143c-1.42,0-2.27,1.172-2.27,2.739c0,1.567,0.85,2.725,2.27,2.725
					C228.678,481.72,229.528,481.222,229.924,480.606z"/>
				<path id="XMLID_461_" style="fill:#F9FBFC;" d="M236.266,482.525v-9.77h1.098v3.765c0.572-0.776,1.422-1.245,2.389-1.245
					c1.844,0,3.148,1.465,3.148,3.721c0,2.3-1.305,3.706-3.148,3.706c-0.996,0-1.861-0.513-2.389-1.23v1.055H236.266z
					 M239.474,481.72c1.436,0,2.285-1.157,2.285-2.725c0-1.567-0.85-2.739-2.285-2.739c-0.863,0-1.729,0.527-2.109,1.143v3.208
					C237.745,481.222,238.61,481.72,239.474,481.72z"/>
				<path id="XMLID_459_" style="fill:#F9FBFC;" d="M244.102,484.298c0.16,0.073,0.426,0.117,0.6,0.117
					c0.484,0,0.807-0.161,1.055-0.747l0.469-1.069l-2.959-7.148h1.188l2.357,5.801l2.344-5.801h1.201l-3.545,8.511
					c-0.424,1.025-1.143,1.421-2.08,1.436c-0.234,0-0.6-0.044-0.805-0.104L244.102,484.298z"/>
			</g>
		</g>
	</g>
</g>
</svg>
