<?xml version="1.0" standalone="no"?>
<!DOCTYPE svg PUBLIC "-//W3C//DTD SVG 20010904//EN"
 "http://www.w3.org/TR/2001/REC-SVG-20010904/DTD/svg10.dtd">
<svg version="1.0" xmlns="http://www.w3.org/2000/svg"
 width="64.000000pt" height="64.000000pt" viewBox="0 0 64.000000 64.000000"
 preserveAspectRatio="xMidYMid meet">

<g transform="translate(0.000000,64.000000) scale(0.100000,-0.100000)"
fill="#000000" stroke="none">
<path d="M16 624 c-18 -17 -23 -104 -6 -104 6 0 10 5 10 10 0 6 55 10 145 10
90 0 145 4 145 10 0 6 -4 10 -10 10 -5 0 -10 11 -10 24 0 48 -21 56 -145 56
-90 0 -117 -3 -129 -16z m252 -36 l3 -28 -125 0 c-125 0 -126 0 -126 23 0 13
3 27 7 31 4 3 59 5 122 4 l116 -3 3 -27z"/>
<path d="M40 590 c0 -6 35 -10 85 -10 50 0 85 4 85 10 0 6 -35 10 -85 10 -50
0 -85 -4 -85 -10z"/>
<path d="M230 590 c0 -5 5 -10 10 -10 6 0 10 5 10 10 0 6 -4 10 -10 10 -5 0
-10 -4 -10 -10z"/>
<path d="M310 630 c0 -5 5 -10 10 -10 6 0 10 5 10 10 0 6 -4 10 -10 10 -5 0
-10 -4 -10 -10z"/>
<path d="M350 630 c0 -5 55 -11 133 -12 l132 -3 3 -27 3 -28 -145 0 c-91 0
-146 -4 -146 -10 0 -6 55 -10 145 -10 l145 0 0 -100 c0 -73 -3 -100 -12 -100
-7 0 -54 42 -105 92 l-93 92 -60 -59 -60 -59 -45 44 -45 44 -78 -77 c-43 -42
-83 -77 -90 -77 -8 0 -12 23 -12 80 0 47 -4 80 -10 80 -6 0 -10 -85 -10 -234
0 -200 2 -237 16 -250 13 -14 55 -16 304 -16 249 0 291 2 304 16 24 23 24 585
0 608 -12 13 -41 16 -145 16 -77 0 -129 -4 -129 -10z m140 -215 l74 -75 -244
0 -245 0 62 62 63 63 53 -53 c54 -53 74 -65 63 -35 -5 11 8 31 41 65 26 26 50
48 53 48 3 0 39 -34 80 -75z m128 -242 l-3 -148 -295 0 -295 0 -3 148 -3 147
301 0 301 0 -3 -147z"/>
<path d="M40 240 l0 -60 170 0 170 0 0 60 0 60 -170 0 -170 0 0 -60z m320 0
l0 -40 -150 0 -150 0 0 40 0 40 150 0 150 0 0 -40z"/>
<path d="M400 170 l0 -130 100 0 100 0 0 130 0 130 -100 0 -100 0 0 -130z
m180 0 l0 -110 -80 0 -80 0 0 110 0 110 80 0 80 0 0 -110z"/>
<path d="M440 250 c0 -5 5 -10 10 -10 6 0 10 5 10 10 0 6 -4 10 -10 10 -5 0
-10 -4 -10 -10z"/>
<path d="M480 250 c0 -5 18 -10 40 -10 22 0 40 5 40 10 0 6 -18 10 -40 10 -22
0 -40 -4 -40 -10z"/>
<path d="M440 210 c0 -6 27 -10 60 -10 33 0 60 4 60 10 0 6 -27 10 -60 10 -33
0 -60 -4 -60 -10z"/>
<path d="M460 170 c0 -5 23 -10 50 -10 28 0 50 5 50 10 0 6 -22 10 -50 10 -27
0 -50 -4 -50 -10z"/>
<path d="M440 130 c0 -6 27 -10 60 -10 33 0 60 4 60 10 0 6 -27 10 -60 10 -33
0 -60 -4 -60 -10z"/>
<path d="M40 100 l0 -60 80 0 80 0 0 60 0 60 -80 0 -80 0 0 -60z m105 30 c-3
-5 -15 -10 -25 -10 -10 0 -22 5 -25 10 -4 6 7 10 25 10 18 0 29 -4 25 -10z
m-45 -30 c0 -3 -9 -11 -20 -18 -18 -11 -20 -10 -20 18 0 28 2 29 20 18 11 -7
20 -15 20 -18z m80 -2 c0 -30 -1 -31 -17 -16 -13 14 -14 20 -3 32 18 22 20 20
20 -16z m-35 -28 c4 -6 -7 -10 -25 -10 -18 0 -29 4 -25 10 3 6 15 10 25 10 10
0 22 -4 25 -10z"/>
<path d="M220 100 l0 -60 80 0 80 0 0 60 0 60 -80 0 -80 0 0 -60z m105 30 c-3
-5 -15 -10 -25 -10 -10 0 -22 5 -25 10 -4 6 7 10 25 10 18 0 29 -4 25 -10z
m-45 -30 c0 -3 -9 -11 -20 -18 -18 -11 -20 -10 -20 18 0 28 2 29 20 18 11 -7
20 -15 20 -18z m80 -2 c0 -30 -1 -31 -17 -16 -13 14 -14 20 -3 32 18 22 20 20
20 -16z m-35 -28 c4 -6 -7 -10 -25 -10 -18 0 -29 4 -25 10 3 6 15 10 25 10 10
0 22 -4 25 -10z"/>
<path d="M500 590 c0 -5 5 -10 10 -10 6 0 10 5 10 10 0 6 -4 10 -10 10 -5 0
-10 -4 -10 -10z"/>
<path d="M540 590 c0 -5 5 -10 10 -10 6 0 10 5 10 10 0 6 -4 10 -10 10 -5 0
-10 -4 -10 -10z"/>
<path d="M580 590 c0 -5 5 -10 10 -10 6 0 10 5 10 10 0 6 -4 10 -10 10 -5 0
-10 -4 -10 -10z"/>
<path d="M60 505 c-26 -32 13 -81 48 -59 22 14 27 41 12 59 -16 19 -44 19 -60
0z m46 -16 c10 -17 -13 -36 -27 -22 -12 12 -4 33 11 33 5 0 12 -5 16 -11z"/>
<path d="M220 510 c0 -5 5 -10 10 -10 6 0 10 5 10 10 0 6 -4 10 -10 10 -5 0
-10 -4 -10 -10z"/>
<path d="M260 510 c0 -5 23 -10 50 -10 28 0 50 5 50 10 0 6 -22 10 -50 10 -27
0 -50 -4 -50 -10z"/>
<path d="M470 510 c0 -6 28 -10 65 -10 37 0 65 4 65 10 0 6 -28 10 -65 10 -37
0 -65 -4 -65 -10z"/>
</g>
</svg>
